<svg xmlns="http://www.w3.org/2000/svg" viewBox="0 0 40 40"><defs><style>.cls-1{fill:#fff;}.cls-1,.cls-2,.cls-3,.cls-4,.cls-5{fill-rule:evenodd;}.cls-2{fill:#3e82f1;}.cls-3{fill:#32a753;}.cls-4{fill:#f9bb00;}.cls-5{fill:#e74133;}</style></defs><title>google-social-login</title><g id="Layer_2" data-name="Layer 2"><g id="Layer_1-2" data-name="Layer 1"><path class="cls-1" d="M2,0A2,2,0,0,0,0,2V38a2,2,0,0,0,2,2H38a2,2,0,0,0,2-2V2a2,2,0,0,0-2-2ZM2,0"/><path class="cls-2" d="M32.59,20.29a14.76,14.76,0,0,0-.23-2.63H20.26v5h6.91a5.91,5.91,0,0,1-2.56,3.88v3.22h4.15a12.53,12.53,0,0,0,3.83-9.44Zm0,0"/><path class="cls-3" d="M20.26,32.85a12.26,12.26,0,0,0,8.5-3.11l-4.15-3.22a7.75,7.75,0,0,1-11.54-4.07H8.78v3.33a12.84,12.84,0,0,0,11.48,7.08Zm0,0"/><path class="cls-4" d="M13.07,22.44a7.59,7.59,0,0,1,0-4.88V14.23H8.78a12.86,12.86,0,0,0,0,11.54l4.29-3.33Zm0,0"/><path class="cls-5" d="M20.26,12.26a6.94,6.94,0,0,1,4.91,1.92l3.68-3.68a12.35,12.35,0,0,0-8.59-3.35A12.84,12.84,0,0,0,8.78,14.23l4.29,3.33a7.66,7.66,0,0,1,7.19-5.3Zm0,0"/></g></g></svg>